<?xml version="1.0" standalone="no"?>
<!DOCTYPE svg PUBLIC "-//W3C//DTD SVG 20010904//EN"
 "http://www.w3.org/TR/2001/REC-SVG-20010904/DTD/svg10.dtd">
<svg version="1.0" xmlns="http://www.w3.org/2000/svg"
 width="1024.000000pt" height="1024.000000pt" viewBox="0 0 1024.000000 1024.000000"
 preserveAspectRatio="xMidYMid meet">
<metadata>
Created by potrace 1.14, written by Peter Selinger 2001-2017
</metadata>
<g transform="translate(0.000000,1024.000000) scale(0.100000,-0.100000)"
fill="#000000" stroke="none">
<path d="M7935 8544 c-588 -61 -1056 -286 -1457 -702 -343 -356 -559 -770
-652 -1248 -40 -206 -51 -332 -50 -581 l0 -233 -600 0 c-846 -1 -1071 -13
-1351 -76 -215 -48 -433 -133 -586 -230 l-36 -22 -109 90 c-291 243 -522 469
-583 571 -77 131 -102 238 -90 388 26 319 262 489 677 489 106 0 258 -21 337
-47 161 -52 311 -164 356 -266 30 -68 30 -173 1 -280 -12 -42 -22 -81 -22 -86
0 -16 70 -33 105 -27 35 7 82 52 111 108 20 38 264 597 264 604 0 10 -207 102
-299 133 -292 98 -659 118 -971 55 -377 -77 -717 -320 -867 -619 -126 -250
-135 -581 -22 -808 73 -145 239 -326 522 -567 87 -73 156 -136 155 -139 -2 -3
-30 -46 -62 -96 -196 -297 -280 -680 -231 -1047 17 -128 46 -250 60 -254 6 -2
115 99 243 224 l234 227 -37 79 c-76 167 -107 333 -93 507 6 91 43 232 58 227
5 -2 66 -49 134 -106 264 -218 419 -422 488 -642 20 -64 23 -95 22 -210 0
-119 -4 -144 -26 -207 -63 -178 -179 -303 -363 -393 -142 -69 -200 -81 -395
-87 -141 -4 -180 -2 -267 16 -329 68 -532 273 -608 614 -9 42 -21 77 -26 77
-10 0 -469 -277 -486 -294 -19 -18 73 -195 150 -291 213 -262 559 -378 1034
-346 389 26 657 115 935 311 233 164 396 386 465 635 26 93 28 113 27 280 0
165 -2 187 -26 260 -76 237 -229 446 -486 661 -149 125 -149 117 -6 152 207
52 328 62 737 62 288 0 347 -2 347 -14 0 -16 -232 -2113 -255 -2301 -53 -445
-192 -755 -405 -907 l-35 -25 -159 18 -159 18 -188 -182 c-104 -99 -187 -183
-185 -185 4 -3 1137 -56 1352 -63 l82 -3 175 169 c96 94 174 171 173 172 -3 4
-736 43 -796 43 l-45 0 95 51 c234 126 379 255 449 401 42 87 79 214 105 358
12 64 276 2405 276 2443 0 4 175 7 388 7 l388 0 12 -47 c24 -87 91 -248 141
-335 169 -294 400 -491 689 -588 143 -47 255 -63 457 -63 322 0 574 58 860
197 354 173 749 532 826 751 29 84 26 131 -13 167 -38 35 -30 41 -113 -89 -66
-105 -253 -290 -380 -378 -509 -354 -1076 -390 -1475 -95 -81 61 -168 153
-238 253 -76 109 -163 280 -149 293 3 3 36 13 74 23 449 116 880 441 1044 786
101 215 137 517 84 720 -16 62 -91 225 -103 225 -9 0 -366 -338 -370 -350 -2
-5 12 -30 31 -57 86 -120 122 -236 121 -388 -2 -175 -54 -306 -167 -412 -98
-92 -234 -157 -416 -199 -110 -25 -356 -52 -382 -42 -36 14 -64 386 -49 647
23 394 95 689 240 977 182 362 454 634 769 769 331 141 753 153 1066 30 177
-69 303 -164 354 -266 48 -95 48 -132 6 -265 -6 -18 -2 -22 26 -26 58 -9 101
8 144 55 30 33 73 115 174 338 73 162 135 299 138 305 5 13 -212 82 -390 124
-235 56 -368 71 -637 75 -135 2 -263 1 -285 -1z"/>
</g>
</svg>
